Coordinates
version=1
nRows=11
nColumns=36
inDegrees=yes

Units are S.I. units (second, meters, Newtons, ...)
If the header above contains a line with 'inDegrees', this indicates whether rotational values are in degrees (yes) or radians (no).

endheader
time	pelvis_tilt	pelvis_list	pelvis_rotation	pelvis_tx	pelvis_ty	pelvis_tz	hip_flexion_r	hip_adduction_r	hip_rotation_r	knee_angle_r	knee_angle_r_beta	ankle_angle_r	subtalar_angle_r	mtp_angle_r	hip_flexion_l	hip_adduction_l	hip_rotation_l	knee_angle_l	knee_angle_l_beta	ankle_angle_l	subtalar_angle_l	mtp_angle_l	lumbar_extension	lumbar_bending	lumbar_rotation	arm_flex_r	arm_add_r	arm_rot_r	elbow_flex_r	pro_sup_r	arm_flex_l	arm_add_l	arm_rot_l	elbow_flex_l	pro_sup_l
      0.00000000	     -1.54696382	     -1.68895523	     -8.18146926	      1.69756106	      0.96646094	      0.13036592	     -0.31310406	     -4.90788134	      1.95910404	      1.33714255	      0.02333754	      5.05174845	     -6.12855608	     -7.00348449	     -2.88180656	     -5.91602393	     -1.87073000	      0.88280050	      0.01540778	     10.62021781	     -5.39625456	     -7.00348449	     -0.48227607	      2.53017887	     -0.15940241	     60.41383687	     13.78021099	     55.03067445	    103.80078385	     70.97144603	     54.83969012	     -8.59152694	     63.79844586	    117.22427609	     61.20489078
      0.01666670	     -0.64296292	     -1.03102964	     -9.36300729	      1.69290156	      0.96589989	      0.13362628	     -0.75582055	     -5.92935684	      1.86813524	      1.26286293	      0.02204112	      6.25294415	     -4.58990989	     -7.18150662	     -3.57181871	     -4.95968954	     -3.54147868	      1.31444653	      0.02294142	     10.18971653	     -6.74637914	     -7.18150662	     -2.79200488	      1.04634750	      1.93330663	     65.69177636	     11.04134775	     61.76271691	    113.79069949	     86.45099799	     57.28797101	     -8.59438558	     62.89008789	    122.67333924	     81.85493728
      0.03333330	      0.27775724	     -1.26965311	     -8.75779969	      1.69250524	      0.96785534	      0.13316764	     -1.56944464	     -5.75504221	      1.28539847	      1.70632314	      0.02978096	      6.74272637	     -4.63069032	     -7.30607260	     -3.94524168	     -5.09040106	     -4.27676319	      2.31037952	      0.04032373	     10.32801169	     -7.45003667	     -7.30607260	     -4.29338713	      0.95691268	      0.28048449	     66.96711704	     12.91383436	     63.28594874	    115.12277035	     83.26029624	     57.59367146	    -10.34102113	     62.84455812	    125.22489894	     80.77624351
      0.05000000	      0.82944091	     -1.29561690	     -8.38851325	      1.69131694	      0.96642174	      0.13296673	     -2.07782785	     -5.85697817	      0.42509486	      1.71944649	      0.03001000	      6.56347783	     -4.45080190	     -7.37948536	     -4.11049135	     -5.05955156	     -4.86481044	      2.77877006	      0.04849869	     10.17748484	     -7.49659266	     -7.37948536	     -5.18925437	      0.64684189	     -0.62756699	     67.64917788	     14.08506534	     63.40217173	    114.94496098	     92.62024595	     57.74584356	    -10.71122087	     61.78283933	    126.17592721	     93.76440812
      0.06666670	      1.25842642	     -1.31301556	     -8.14159987	      1.69479526	      0.96760088	      0.12985285	     -2.59387059	     -5.94527800	      0.36851796	      1.79490314	      0.03132697	      6.73453715	     -4.72226217	     -7.38350463	     -4.45937270	     -5.01990296	     -5.16544095	      2.99048693	      0.05219384	     10.03607760	     -7.37645742	     -7.38350463	     -5.74778069	      0.54815361	     -1.07184869	     67.87832216	     14.24826376	     63.90433268	    115.02938443	     92.57182740	     58.09327814	    -10.40849843	     62.45847257	    126.91168601	     94.15800718
      0.08333330	      1.41517378	     -1.28085210	     -7.94628070	      1.69437660	      0.96818582	      0.12993997	     -2.83652763	     -6.03684600	      0.23353485	      1.82258125	      0.03181004	      6.72512022	     -5.11010191	     -7.40806733	     -4.58494722	     -5.00301817	     -5.18034379	      3.07085664	      0.05359656	      9.89417056	     -7.17745349	     -7.40806733	     -5.97293347	      0.52659509	     -1.43508508	     67.98784015	     14.43411264	     64.48075861	    114.90434195	     90.10103452	     58.44693135	    -10.15237156	     62.94099399	    127.57786720	     91.99518368
      0.10000000	      1.29089147	     -1.19727745	     -7.80584263	      1.69477349	      0.96842710	      0.12986630	     -2.81169414	     -6.13529074	      0.19441194	      1.79258773	      0.03128656	      6.60572131	     -5.58538892	     -7.44766639	     -4.45084589	     -4.96817490	     -5.21849001	      3.09842120	      0.05407765	      9.83181314	     -6.88403891	     -7.44766639	     -5.80096947	      0.38598100	     -1.63450974	     67.77530132	     14.31348462	     64.58743832	    115.09724268	     92.02610168	     58.36719349	     -9.89137838	     63.11576031	    127.84123624	     96.11725810
      0.11666670	      1.21344764	     -1.12846818	     -7.69956422	      1.69845132	      0.96715709	      0.12789100	     -2.88136882	     -6.24655499	      0.20038119	      1.71959371	      0.03001257	      6.52577799	     -6.02971910	     -7.45603404	     -4.46499210	     -4.90001823	     -5.08120162	      3.01340071	      0.05259376	      9.59496906	     -6.92196197	     -7.45603404	     -5.54115611	      0.36032745	     -1.72230839	     67.56826778	     14.14220314	     64.64741109	    115.40931080	     89.64518662	     58.21502482	     -9.68192564	     63.35041992	    127.47472380	     93.75235013
      0.13333330	      1.17446392	     -1.11724866	     -7.70497301	      1.69508156	      0.96733702	      0.13059448	     -2.90827125	     -6.24634881	      0.19520466	      1.72039373	      0.03002654	      6.52813628	     -6.03402345	     -7.45603652	     -4.45318182	     -4.90627401	     -5.08018237	      3.00853249	      0.05250880	      9.59301557	     -6.92002849	     -7.45603652	     -5.53873421	      0.37078417	     -1.72659102	     67.57009074	     14.13666353	     64.64378555	    115.40876979	     89.64495475	     58.21911612	     -9.67897360	     63.34780542	    127.47447281	     93.75256124
      0.15000000	      1.07802457	     -1.00178077	     -7.61639655	      1.69888409	      0.96946369	      0.12796251	     -2.96507906	     -6.35167124	      0.32974974	      1.58578499	      0.02767717	      6.45338677	     -6.79758573	     -7.45738053	     -4.44851149	     -4.78634559	     -5.15992265	      2.84564650	      0.04966590	      9.36685376	     -6.59125130	     -7.45738053	     -5.32311651	      0.15622955	     -1.36758617	     67.29618618	     13.18329167	     63.98689541	    116.01472193	     89.52998677	     58.02312208	     -9.27942464	     62.67820510	    126.90227592	     93.92981994
      0.16666670	      1.04961812	     -0.92895916	     -7.54445901	      1.69912827	      0.96783687	      0.12833025	     -3.05427494	     -6.41320305	      0.32764536	      1.50377612	      0.02624584	      6.50016803	     -7.09772832	     -7.47231063	     -4.50209955	     -4.67989059	     -4.97764142	      2.70103613	      0.04714197	      9.08463092	     -6.81497549	     -7.47231063	     -5.23887350	      0.06824851	     -1.28545978	     67.32183179	     12.78027079	     63.97742444	    116.29123887	     86.72715641	     58.25409555	     -9.21275521	     63.05436620	    126.71430527	     91.01290967
